<svg xmlns="http://www.w3.org/2000/svg" viewBox="0 0 1920 1080" role="img" aria-labelledby="title desc">
  <title id="title">Ember Dunes</title>
  <desc id="desc">Minimal black desert dunes illuminated by a warm orange sun.</desc>
  <defs>
    <radialGradient id="sun"><stop stop-color="#ffcc80"/><stop offset=".48" stop-color="#ff7849"/><stop offset="1" stop-color="#ff3d00" stop-opacity="0"/></radialGradient>
    <linearGradient id="sky" x1="0" y1="0" x2="0" y2="1"><stop stop-color="#080809"/><stop offset=".62" stop-color="#1c0c09"/><stop offset="1" stop-color="#3c150d"/></linearGradient>
    <linearGradient id="dune" x1="0" y1="0" x2="1" y2=".25"><stop stop-color="#050506"/><stop offset=".55" stop-color="#21100d"/><stop offset="1" stop-color="#050506"/></linearGradient>
    <filter id="blur"><feGaussianBlur stdDeviation="45"/></filter>
    <filter id="grain"><feTurbulence baseFrequency=".7" numOctaves="4"/><feColorMatrix values="1 0 0 0 0 0 1 0 0 0 0 0 1 0 0 0 0 0 .045 0"/></filter>
  </defs>
  <rect width="1920" height="1080" fill="url(#sky)"/>
  <circle cx="1390" cy="390" r="270" fill="url(#sun)" opacity=".88" filter="url(#blur)"/>
  <circle cx="1390" cy="390" r="116" fill="#ff9b63"/>
  <path d="M0 690c285-120 484-83 710 35 178 93 321 86 532-12 232-108 446-105 678 8v359H0Z" fill="#120a09"/>
  <path d="M0 812c386-214 670-202 995-34 302 157 595 104 925-73v375H0Z" fill="url(#dune)"/>
  <path d="M90 842c350-171 604-166 915-35" fill="none" stroke="#ff7d4f" stroke-opacity=".2" stroke-width="5"/>
  <rect width="1920" height="1080" filter="url(#grain)"/>
</svg>
